<!DOCTYPE svg>
<svg xmlns="http://www.w3.org/2000/svg" xmlns:xlink="http://www.w3.org/1999/xlink" viewBox="0 0 80 48">
	<g>
		<path d="m11.596 8.697-6.363 3.692c-.54.313-1.233-.066-1.233-.697V4.308c0-.63.692-1.01 1.233-.696l6.363 3.692a.802.802 0 0 1 0 1.393z" fill="#fff"/>
	</g>
	<g transform="translate(16, 0)">
		<path d="M5.5 3.5A1.5 1.5 0 0 1 7 5v6a1.5 1.5 0 0 1-3 0V5a1.5 1.5 0 0 1 1.5-1.5zm5 0A1.5 1.5 0 0 1 12 5v6a1.5 1.5 0 0 1-3 0V5a1.5 1.5 0 0 1 1.5-1.5z" fill="#fff"/>
	</g>
	<g transform="translate(32, 0)">
		<path d="M.5 3.5A.5.5 0 0 0 0 4v8a.5.5 0 0 0 1 0V8.753l6.267 3.636c.54.313 1.233-.066 1.233-.697v-2.94l6.267 3.636c.54.314 1.233-.065 1.233-.696V4.308c0-.63-.693-1.01-1.233-.696L8.5 7.248v-2.94c0-.63-.692-1.01-1.233-.696L1 7.248V4a.5.5 0 0 0-.5-.5z" fill="#fff"/>
	</g>
	<g transform="translate(48, 0)">
		<path d="M15.5 3.5a.5.5 0 0 1 .5.5v8a.5.5 0 0 1-1 0V8.753l-6.267 3.636c-.54.313-1.233-.066-1.233-.697v-2.94l-6.267 3.636C.693 12.703 0 12.324 0 11.693V4.308c0-.63.693-1.01 1.233-.696L7.5 7.248v-2.94c0-.63.693-1.01 1.233-.696L15 7.248V4a.5.5 0 0 1 .5-.5z" fill="#fff"/>
	</g>
	<g transform="translate(64, 0)">
		<path d="M3 4.5h10a2 2 0 0 1 2 2v3a2 2 0 0 1-2 2H3a2 2 0 0 1-2-2v-3a2 2 0 0 1 2-2zm0 1a1 1 0 0 0-1 1v3a1 1 0 0 0 1 1h10a1 1 0 0 0 1-1v-3a1 1 0 0 0-1-1H3zM1 2a.5.5 0 0 1 .5-.5h13a.5.5 0 0 1 0 1h-13A.5.5 0 0 1 1 2zm0 12a.5.5 0 0 1 .5-.5h13a.5.5 0 0 1 0 1h-13A.5.5 0 0 1 1 14z" fill="#fff"/>
	</g>

	<g transform="translate(0, 16)">
		<path
			d="M6.717 3.55A.5.5 0 0 1 7 4v8a.5.5 0 0 1-.812.39L3.825 10.5H1.5A.5.5 0 0 1 1 10V6a.5.5 0 0 1 .5-.5h2.325l2.363-1.89a.5.5 0 0 1 .529-.06zm7.137 2.096a.5.5 0 0 1 0 .708L12.207 8l1.647 1.646a.5.5 0 0 1-.708.708L11.5 8.707l-1.646 1.647a.5.5 0 0 1-.708-.708L10.793 8 9.146 6.354a.5.5 0 1 1 .708-.708L11.5 7.293l1.646-1.647a.5.5 0 0 1 .708 0z"
			fill="#fff"/>
	</g>
	<g transform="translate(14, 16)">
		<path
			d="M9 4a.5.5 0 0 0-.812-.39L5.825 5.5H3.5A.5.5 0 0 0 3 6v4a.5.5 0 0 0 .5.5h2.325l2.363 1.89A.5.5 0 0 0 9 12V4zm3.025 4a4.486 4.486 0 0 1-1.318 3.182L10 10.475A3.489 3.489 0 0 0 11.025 8 3.49 3.49 0 0 0 10 5.525l.707-.707A4.486 4.486 0 0 1 12.025 8z"
			fill="#fff"/>
	</g>
	<g transform="translate(32, 16)">
		<path d="M10.121 12.596A6.48 6.48 0 0 0 12.025 8a6.48 6.48 0 0 0-1.904-4.596l-.707.707A5.483 5.483 0 0 1 11.025 8a5.483 5.483 0 0 1-1.61 3.89l.706.706z" fill="#fff"/>
		<path d="M8.707 11.182A4.486 4.486 0 0 0 10.025 8a4.486 4.486 0 0 0-1.318-3.182L8 5.525A3.489 3.489 0 0 1 9.025 8 3.49 3.49 0 0 1 8 10.475l.707.707zM6.717 3.55A.5.5 0 0 1 7 4v8a.5.5 0 0 1-.812.39L3.825 10.5H1.5A.5.5 0 0 1 1 10V6a.5.5 0 0 1 .5-.5h2.325l2.363-1.89a.5.5 0 0 1 .529-.06z" fill="#fff"/>
	</g>

	<g transform="translate(3, 35) scale(0.625)">
		<path d="M1.5 1a.5.5 0 0 0-.5.5v4a.5.5 0 0 1-1 0v-4A1.5 1.5 0 0 1 1.5 0h4a.5.5 0 0 1 0 1h-4zM10 .5a.5.5 0 0 1 .5-.5h4A1.5 1.5 0 0 1 16 1.5v4a.5.5 0 0 1-1 0v-4a.5.5 0 0 0-.5-.5h-4a.5.5 0 0 1-.5-.5zM.5 10a.5.5 0 0 1 .5.5v4a.5.5 0 0 0 .5.5h4a.5.5 0 0 1 0 1h-4A1.5 1.5 0 0 1 0 14.5v-4a.5.5 0 0 1 .5-.5zm15 0a.5.5 0 0 1 .5.5v4a1.5 1.5 0 0 1-1.5 1.5h-4a.5.5 0 0 1 0-1h4a.5.5 0 0 0 .5-.5v-4a.5.5 0 0 1 .5-.5z" stroke="#fff" fill="#fff"/>
	</g>
	<g transform="translate(19, 35) scale(0.625)">
		<path d="M5.5 0a.5.5 0 0 1 .5.5v4A1.5 1.5 0 0 1 4.5 6h-4a.5.5 0 0 1 0-1h4a.5.5 0 0 0 .5-.5v-4a.5.5 0 0 1 .5-.5zm5 0a.5.5 0 0 1 .5.5v4a.5.5 0 0 0 .5.5h4a.5.5 0 0 1 0 1h-4A1.5 1.5 0 0 1 10 4.5v-4a.5.5 0 0 1 .5-.5zM0 10.5a.5.5 0 0 1 .5-.5h4A1.5 1.5 0 0 1 6 11.5v4a.5.5 0 0 1-1 0v-4a.5.5 0 0 0-.5-.5h-4a.5.5 0 0 1-.5-.5zm10 1a1.5 1.5 0 0 1 1.5-1.5h4a.5.5 0 0 1 0 1h-4a.5.5 0 0 0-.5.5v4a.5.5 0 0 1-1 0v-4z" stroke="#fff" fill="#fff"/>
	</g>
	<g transform="translate(34, 34) scale(0.75)">
		<path d="M1.5 2A1.5 1.5 0 0 0 0 3.5v9A1.5 1.5 0 0 0 1.5 14h13a1.5 1.5 0 0 0 1.5-1.5v-9A1.5 1.5 0 0 0 14.5 2h-13zm7 6h5a.5.5 0 0 1 .5.5v3a.5.5 0 0 1-.5.5h-5a.5.5 0 0 1-.5-.5v-3a.5.5 0 0 1 .5-.5z" fill="#fff"/>
	</g>
</svg>
